<?xml version="1.0" encoding="iso-8859-1"?>
<!-- Generator: Adobe Illustrator 18.1.1, SVG Export Plug-In . SVG Version: 6.00 Build 0)  -->
<svg version="1.1" id="Capa_1" xmlns="http://www.w3.org/2000/svg" xmlns:xlink="http://www.w3.org/1999/xlink" x="0px" y="0px"
	 viewBox="0 0 153.586 153.586" style="enable-background:new 0 0 153.586 153.586;" xml:space="preserve">
<g>
	<g>
		<path style="fill:#010002;" d="M79.884,153.147c0,0,3.502-3.064-2.626-8.316c0,0-16.052-10.449-25.719-22.115
			c-2.5-4-9.9-11.911-10.567-17.911s-6.53-18.708-6.53-18.708s-1.721-8.454,6.822-8.657c8.078,2.896,16.652,23.187,16.652,23.187
			s6.212,4.62,7.4-0.8c0,0,1.889-7.254-0.654-19.498c-2.735-13.176-5.625-23.703-8.377-41.389
			c-0.5-11.834,10.928-7.704,11.901-3.168c1.198,0.191,12.716,45.371,16.241,44.323c2.379-0.707-13.366-55.306-8.785-57.874
			c2.507-5.41,11.147-4.162,11.998-0.316c0.963,4.349,16.359,61.775,17.606,57.713c1.477-4.812-6.505-45.106-4.551-47.443
			c4.207-5.031,11.188-3.654,11.774,3.15c0.141,1.629,5.365,52.42,8.366,49.42c3.527-3.526-0.13-19.95,1.457-32.007
			c0.923-7.009,8.783-3.465,8.781,2.231c-0.004,10.054,2.472,43.906,2.267,46.095c0,0-0.04,20.261-7.669,44.643l-2.334,7.879
			L79.884,153.147z"/>
		<g>
			<path style="fill:#010002;" d="M33.93,69.32l0.953-8.431c0,0,0.124-0.604-0.468-0.682c-0.815-0.103-8.459-0.947-8.459-0.947
				s-1.035-0.134-0.436,0.642c0.602,0.776,1.564,2.014,1.564,2.014s-0.34,0.261-0.851,0.658c-1.593,1.231-4.687,3.63-5.872,4.549
				c0,0-0.283,0.208-0.006,0.567c0.279,0.36,3.44,4.441,3.834,4.944c0.387,0.504,0.648,0.16,0.648,0.16
				c1.219-0.944,4.213-3.265,5.861-4.538c0.573-0.447,0.946-0.738,0.946-0.738s1.196,1.543,1.692,2.181
				C33.829,70.338,33.93,69.32,33.93,69.32z"/>
		</g>
		<g>
			<path style="fill:#010002;" d="M72.3,0.399l-4.724,7.049c0,0-0.388,0.479,0.102,0.82c0.677,0.464,7.075,4.731,7.075,4.731
				s0.856,0.595,0.682-0.368c-0.177-0.967-0.463-2.508-0.463-2.508s0.423-0.075,1.06-0.193c1.981-0.36,5.831-1.066,7.306-1.337
				c0,0,0.348-0.054,0.266-0.502c-0.082-0.447-1.01-5.525-1.128-6.153c-0.111-0.626-0.502-0.441-0.502-0.441
				C80.457,1.776,76.73,2.46,74.683,2.83c-0.716,0.135-1.181,0.223-1.181,0.223s-0.351-1.921-0.498-2.717
				C72.859-0.456,72.3,0.399,72.3,0.399z"/>
		</g>
		<path style="fill:#010002;" d="M38.959,71.509c-6.293,0-11.395,5.102-11.395,11.395s5.102,11.395,11.395,11.395
			s11.394-5.103,11.394-11.396S45.252,71.509,38.959,71.509z M38.959,91.938c-4.99,0-9.035-4.046-9.035-9.035
			c0-4.99,4.045-9.035,9.035-9.035c4.989,0,9.035,4.045,9.035,9.035C47.994,87.893,43.948,91.938,38.959,91.938z"/>
		<path style="fill:#010002;" d="M61.748,25.889c-6.293,0-11.395,5.102-11.395,11.395s5.102,11.395,11.395,11.395
			s11.395-5.102,11.395-11.395S68.041,25.889,61.748,25.889z M61.748,46.318c-4.99,0-9.035-4.046-9.035-9.035
			c0-4.99,4.045-9.035,9.035-9.035c4.989,0,9.035,4.045,9.035,9.035C70.783,42.272,66.737,46.318,61.748,46.318z"/>
		<path style="fill:#010002;" d="M81.868,13.883c-6.293,0-11.395,5.102-11.395,11.395s5.102,11.395,11.395,11.395
			c6.293,0,11.395-5.103,11.395-11.396S88.161,13.883,81.868,13.883z M81.868,34.312c-4.99,0-9.035-4.046-9.035-9.035
			c0-4.99,4.045-9.035,9.035-9.035c4.989,0,9.035,4.045,9.035,9.035S86.858,34.312,81.868,34.312z"/>
		<path style="fill:#010002;" d="M105.808,23.888c-6.293,0-11.395,5.102-11.395,11.395s5.102,11.395,11.395,11.395
			s11.395-5.102,11.395-11.395S112.101,23.888,105.808,23.888z M105.808,44.317c-4.99,0-9.035-4.046-9.035-9.035
			c0-4.99,4.045-9.035,9.035-9.035c4.989,0,9.035,4.045,9.035,9.035C114.843,40.271,110.797,44.317,105.808,44.317z"/>
	</g>
</g>
<g>
</g>
<g>
</g>
<g>
</g>
<g>
</g>
<g>
</g>
<g>
</g>
<g>
</g>
<g>
</g>
<g>
</g>
<g>
</g>
<g>
</g>
<g>
</g>
<g>
</g>
<g>
</g>
<g>
</g>
</svg>
